<svg width="512" height="512" viewBox="0 0 512 512" fill="none" xmlns="http://www.w3.org/2000/svg">
<path d="M348.29 130C393.696 130 433.454 154.25 455.389 190.539H414.444C397.638 173.33 374.208 162.65 348.29 162.65C322.383 162.65 298.961 173.321 282.156 190.519V148.936C301.344 136.934 324.01 130 348.29 130Z" fill="#B43842"/>
<path d="M348.29 348.35C314.09 348.35 283.944 329.753 267.911 302.095V148.543H235.352L154.776 222.056L72.5587 148.543H40V373.518H72.5587V193.22L155.17 265.816L235.352 192.743L235.013 302.095C253.462 348.335 295.592 381 348.29 381C363.873 381 378.789 378.143 392.549 372.924V337.074C379.4 344.263 364.321 348.35 348.29 348.35Z" fill="#B43842"/>
<path d="M473 266.043C469.387 309.606 443.588 346.848 406.964 366.378V327.329C416.514 319.474 424.469 309.741 430.269 298.694H340.49V266.043H473Z" fill="#B43842"/>
<path d="M150.564 321.998V374.034H162.434V321.998H178.714V310.774H162.434V291.728H150.564V310.774H131.571V321.998H150.564Z" fill="#B43842"/>
</svg>
